<svg xmlns="http://www.w3.org/2000/svg" xmlns:xlink="http://www.w3.org/1999/xlink" version="1.1" viewBox="63 195 374 110">
    <title>Logo</title>
    <defs>
        <polygon id="path-1" points="0 0 79.3407633 0 79.3407633 109.313405 0 109.313405"/>
        <polygon id="path-3" points="0 0 43.7568602 0 43.7568602 52.756806 0 52.756806"/>
    </defs>
    <g id="Logo" stroke="none" stroke-width="1" fill="none" fill-rule="evenodd">
        <g transform="translate(63.000000, 195.000000)">
            <g id="Group-3">
                <mask id="mask-2" fill="white">
                    <use xlink:href="#path-1"/>
                </mask>
                <g id="Clip-2"/>
                <path d="M39.6690103,109.313405 C61.5824086,109.313405 79.3407633,91.8159346 79.3407633,70.235629 C79.3407633,44.1049236 46.5968256,24.2418024 39.6690103,-0.00194818338 C32.7411951,24.2418024 0,44.1049236 0,70.235629 C0,91.8159346 17.7583547,109.313405 39.6690103,109.313405" id="Fill-1" fill="#DF2C26" mask="url(#mask-2)"/>
            </g>
            <path d="M17.2616693,84.1651402 C16.4937404,84.9499798 16.6473262,85.4648568 17.055974,86.2107327 C17.6182077,87.2321374 23.6519343,98.0111578 39.227177,98.0111578 C50.1454797,98.0111578 57.3365849,91.5459721 58.1703362,89.8482694 L57.7863718,89.7174628 C55.3427124,91.4151655 50.0165773,95.3978089 41.728431,95.3978089 C33.4457698,95.3978089 26.2135256,89.6812823 21.0382336,82.6344247 C20.2291658,81.5323095 19.5243168,82.0249216 19.1238967,82.4006426 L17.2616693,84.1651402 Z" id="Fill-4" fill="#FFFFFF"/>
            <path d="M118.391317,14.3642344 C118.391317,13.1841919 118.202077,12.1989677 117.834568,11.3918632 C117.450604,10.5986742 116.915796,9.95577371 116.216432,9.48264346 C115.519811,9.00394697 114.694288,8.6588402 113.734377,8.44454003 C112.774466,8.23858921 111.707593,8.13004757 110.541987,8.13004757 L106.36226,8.13004757 L106.36226,20.7654084 L110.089457,20.7654084 C111.183756,20.7654084 112.23143,20.6652161 113.224253,20.453699 C114.228045,20.2449651 115.108421,19.8998583 115.87635,19.3961138 C116.647021,18.9007186 117.264107,18.2466856 117.713894,17.4284485 C118.166423,16.6018622 118.391317,15.5915899 118.391317,14.3642344 M126.177567,14.0831394 C126.177567,16.2957191 125.810058,18.2244206 125.080525,19.8887258 C124.345508,21.5418986 123.333487,22.9139763 122.030751,24.004959 C120.738985,25.0848092 119.183929,25.9030463 117.382039,26.4624532 C115.571921,27.0107277 113.591761,27.2862565 111.444303,27.2862565 L106.36226,27.2862565 L106.36226,42.3262322 L98.1838175,42.3262322 L98.1838175,1.1611173 L112.29451,1.1611173 C114.743655,1.1611173 116.836261,1.53127214 118.586041,2.27158182 C120.338565,3.01467463 121.778431,3.98876632 122.905641,5.19107378 C124.035594,6.387815 124.86386,7.7710252 125.39044,9.33235502 C125.914277,10.896468 126.177567,12.4772796 126.177567,14.0831394" id="Fill-6" fill="#009DE0"/>
            <path d="M149.216255,14.5395709 C149.216255,13.5821779 149.14769,12.6414837 149.016045,11.7063556 C148.8844,10.779577 148.632081,9.93350875 148.250859,9.19598219 C147.877865,8.44454003 147.343057,7.84895254 146.643693,7.39808724 C145.9553,6.9416557 145.063954,6.71065682 143.966913,6.71065682 C142.83696,6.71065682 141.934644,6.9416557 141.262706,7.39808724 C140.579798,7.84895254 140.047733,8.44454003 139.677482,9.19598219 C139.293517,9.93350875 139.041198,10.779577 138.915038,11.7063556 C138.783393,12.6414837 138.714828,13.5821779 138.714828,14.5395709 L138.714828,18.4860338 L149.216255,18.4860338 L149.216255,14.5395709 Z M149.216255,42.3317984 L149.216255,24.9985325 L138.714828,24.9985325 L138.714828,42.3317984 L130.525415,42.3317984 L130.525415,13.5654792 C130.525415,9.06795871 131.674566,5.71151705 133.970125,3.50450359 C136.268426,1.29192389 139.597946,0.187025605 143.966913,0.187025605 C148.440098,0.187025605 151.799787,1.31975509 154.040494,3.59078029 C156.278458,5.85623925 157.39744,9.19041595 157.39744,13.5654792 L157.39744,42.3317984 L149.216255,42.3317984 Z" id="Fill-8" fill="#009DE0"/>
            <path d="M184.441151,13.6781955 C184.441151,11.7745421 183.848749,10.2967058 182.661202,9.25303613 C181.473655,8.2010171 179.416703,7.67500759 176.487603,7.67500759 L172.752177,7.67500759 L172.752177,20.0264902 L176.712496,20.0264902 C177.609327,20.0264902 178.533584,19.9318642 179.468812,19.739829 C180.41501,19.5477937 181.254247,19.2138195 181.983779,18.7100749 C182.724282,18.2146797 183.311199,17.5606467 183.763728,16.7424097 C184.216258,15.9158233 184.441151,14.9055511 184.441151,13.6781955 M192.625079,12.4758881 C192.625079,14.8415393 192.021706,16.9706254 190.825931,18.852014 C189.613701,20.7417518 187.86392,22.0275529 185.568361,22.7122002 C186.851899,23.0628732 187.921515,23.5805333 188.788177,24.2874456 C189.65484,24.9887916 190.354204,25.8181611 190.872555,26.7449398 C191.401878,27.6800678 191.766644,28.7237375 191.975082,29.8648163 C192.186262,31.0086783 192.290481,32.2054195 192.290481,33.4606062 L192.290481,42.3304068 L184.331447,42.3304068 L184.331447,34.8966957 C184.331447,33.524618 184.224486,32.2694312 184.016048,31.1478342 C183.804867,30.0262372 183.431873,29.0799767 182.861412,28.3174021 C182.299178,27.5520443 181.523022,26.9620231 180.546655,26.5417721 C179.562061,26.1270873 178.325147,25.9155703 176.8222,25.9155703 L172.752177,25.9155703 L172.752177,42.3304068 L164.56825,42.3304068 L164.56825,1.15972574 L179.7513,1.15972574 C181.558676,1.15972574 183.242634,1.37680903 184.803175,1.81375873 C186.369201,2.25627467 187.721305,2.94092197 188.873198,3.87326688 C190.022349,4.8083949 190.935635,5.98843741 191.607573,7.42452687 C192.290481,8.84948386 192.625079,10.536054 192.625079,12.4758881" id="Fill-10" fill="#009DE0"/>
            <path d="M216.278659,8.13143913 L216.278659,42.3248406 L208.100216,42.3248406 L208.100216,8.13143913 L205.047699,8.13143913 C203.426821,8.13143913 202.359948,8.42366663 201.855309,8.99420605 C201.353413,9.56752859 201.090123,10.4386449 201.090123,11.6242536 L195.67074,8.81886955 C195.67074,7.86704281 195.75576,6.93469791 195.901118,6.0162686 C196.049219,5.10062241 196.381074,4.28238539 196.89394,3.55877442 C197.393094,2.83516345 198.117141,2.25627467 199.063339,1.81375873 C200.004052,1.37680903 201.246451,1.15972574 202.790537,1.15972574 L228.645056,1.15972574 L228.645056,8.13143913 L216.278659,8.13143913 Z" id="Fill-12" fill="#009DE0"/>
            <path d="M249.077723,14.5395709 C249.077723,13.5821779 249.009158,12.6414837 248.877513,11.7063556 C248.745868,10.779577 248.496291,9.93350875 248.112326,9.19598219 C247.739332,8.44454003 247.204525,7.84895254 246.505161,7.39808724 C245.816768,6.9416557 244.925422,6.71065682 243.828381,6.71065682 C242.698428,6.71065682 241.796112,6.9416557 241.124174,7.39808724 C240.441266,7.84895254 239.911943,8.44454003 239.538949,9.19598219 C239.154985,9.93350875 238.902665,10.779577 238.776506,11.7063556 C238.644861,12.6414837 238.576296,13.5821779 238.576296,14.5395709 L238.576296,18.4860338 L249.077723,18.4860338 L249.077723,14.5395709 Z M249.077723,42.3317984 L249.077723,24.9985325 L238.576296,24.9985325 L238.576296,42.3317984 L230.386883,42.3317984 L230.386883,13.5654792 C230.386883,9.06795871 231.536034,5.71151705 233.831592,3.50450359 C236.129894,1.29192389 239.459414,0.187025605 243.828381,0.187025605 C248.301566,0.187025605 251.661255,1.31975509 253.901961,3.59078029 C256.139926,5.85623925 257.258908,9.19041595 257.258908,13.5654792 L257.258908,42.3317984 L249.077723,42.3317984 Z" id="Fill-14" fill="#009DE0"/>
            <path d="M301.518213,42.4422882 C299.749234,42.4422882 298.421814,42.0220372 297.51127,41.1871015 C296.608953,40.3410333 295.85748,39.0079192 295.248622,37.1766269 C293.893776,39.049666 292.187877,40.5330685 290.114469,41.643533 C288.046547,42.7512145 285.663224,43.2994889 282.948047,43.2994889 C279.903758,43.2994889 277.161155,42.7512145 274.736694,41.643533 C272.304005,40.5330685 270.252538,39.0079192 268.552124,37.0708683 C266.859938,35.1199018 265.568172,32.8433104 264.682311,30.2327447 C263.799193,27.6221789 263.357634,24.8334936 263.357634,21.8611224 C263.357634,18.8052576 263.799193,15.9636929 264.682311,13.3058142 C265.568172,10.6562848 266.859938,8.36021152 268.552124,6.42037749 C270.252538,4.47219411 272.325946,2.95261107 274.788803,1.84492966 C277.251661,0.740031373 280.071057,0.186190669 283.230536,0.186190669 C285.526094,0.186190669 287.703721,0.511815606 289.752446,1.16028236 C291.80117,1.80874911 293.616773,2.76614209 295.196513,4.04637688 C296.776252,5.3293948 298.062533,6.90742334 299.06084,8.79159498 C300.064633,10.6785497 300.678976,12.8438164 300.90387,15.2846119 L292.887241,15.2846119 C292.72817,14.0238589 292.360661,12.879997 291.784714,11.8474598 C291.195055,10.8232719 290.454552,9.95493877 289.552236,9.24802652 C288.644434,8.54111426 287.640641,7.98727356 286.53263,7.59485376 C285.421875,7.19130149 284.26724,6.98813379 283.057752,6.98813379 C281.025483,6.98813379 279.289415,7.43064973 277.844063,8.30733225 C276.390484,9.18958101 275.197451,10.333443 274.259481,11.736135 C273.313283,13.1471764 272.62489,14.7363374 272.188816,16.5064012 C271.758227,18.2820312 271.549789,20.0687936 271.549789,21.8611224 C271.549789,23.6117043 271.758227,25.35672 272.188816,27.0933863 C272.62489,28.8244864 273.291342,30.3858162 274.196401,31.7745927 C275.098718,33.1689353 276.258839,34.3016648 277.671279,35.1783473 C279.078235,36.0550299 280.784134,36.4919796 282.780749,36.4919796 C285.457529,36.4919796 287.563848,35.7377543 289.127132,34.2042556 C290.693158,32.6846726 291.73809,30.7420555 292.261927,28.3764042 L283.011127,28.3764042 L283.011127,21.8611224 L300.90387,21.8611224 L300.90387,32.3757464 C300.90387,34.0567503 301.197328,35.1672149 301.806186,35.7266218 C302.401331,36.2748963 303.303647,36.5504251 304.515878,36.5504251 L301.518213,42.4422882 Z" id="Fill-16" fill="#009DE0"/>
            <polygon id="Fill-18" fill="#009DE0" points="307.955376 42.3251189 307.955376 1.16000405 334.87951 1.16000405 334.87951 8.13728368 316.142046 8.13728368 316.142046 18.4793543 333.072135 18.4793543 333.072135 25.0002024 316.142046 25.0002024 316.142046 35.3478393 335.33204 35.3478393 335.33204 42.3251189"/>
            <path d="M373.605614,37.4646797 C373.462998,38.3803259 373.133886,39.1985629 372.618277,39.9221739 C372.119123,40.6513511 371.400561,41.2302399 370.476304,41.6671896 C369.552046,42.1124886 368.328845,42.3295719 366.779275,42.3295719 L339.676871,42.3295719 L339.676871,35.5777249 L362.270435,8.13060419 L341.215472,8.13060419 L341.215472,1.1588908 L372.870596,1.1588908 L372.870596,7.44595689 L350.241378,35.3495092 L364.527598,35.3495092 C366.101852,35.3495092 367.146784,35.065631 367.656908,34.4923085 C368.167032,33.9245522 368.419351,33.0450865 368.419351,31.865044 L373.835992,34.6620787 C373.835992,35.6139055 373.761942,36.5490335 373.605614,37.4646797" id="Fill-20" fill="#009DE0"/>
            <path d="M127.18657,82.2311507 C127.18657,79.6957292 126.871171,77.3662585 126.251343,75.2316061 C125.620544,73.1080862 124.65789,71.279577 123.357896,69.7405121 C122.052417,68.2014472 120.431539,67.0158385 118.47332,66.1836859 C116.515102,65.3515332 114.214058,64.9368485 111.559218,64.9368485 L108.671257,64.9368485 L108.671257,99.8204635 L111.707319,99.8204635 C114.356673,99.8204635 116.652232,99.364032 118.583025,98.4567351 C120.505589,97.5577877 122.10727,96.3304321 123.385323,94.7579698 C124.663376,93.19664 125.620544,91.3347333 126.251343,89.1555511 C126.871171,86.9875013 127.18657,84.6580306 127.18657,82.1560065 L127.18657,82.2311507 Z M137.677027,82.3146443 C137.677027,86.4559255 137.112051,90.1769558 135.979356,93.4415545 C134.843918,96.7117195 133.195614,99.4920555 131.028957,101.754731 C128.848588,104.022973 126.177292,105.762423 123.001358,106.961947 C119.806226,108.153122 116.166791,108.759842 112.069342,108.759842 L98.1835432,108.759842 L98.1835432,56.0030361 L114.894224,56.0030361 C118.796948,56.0030361 122.189548,56.6709847 125.055568,58.0124481 C127.921588,59.3622609 130.302167,61.2158182 132.186336,63.5814695 C134.056791,65.952687 135.441805,68.7385892 136.344122,71.9363931 C137.232725,75.1369801 137.677027,78.5991802 137.677027,82.3146443 L137.677027,82.3146443 Z" id="Fill-22" fill="#009DE0"/>
            <path d="M184.33419,82.3747596 C184.33419,80.0313733 184.046217,77.732517 183.464785,75.4976723 C182.886095,73.2433458 182.00572,71.2255845 180.829143,69.4471713 C179.644339,67.6687582 178.130422,66.2243194 176.268194,65.1194211 C174.416937,64.0228722 172.176231,63.4718146 169.578986,63.4718146 C166.97077,63.4718146 164.730063,64.0228722 162.85138,65.1194211 C160.967212,66.2243194 159.434097,67.6687582 158.25752,69.4471713 C157.072716,71.2255845 156.189597,73.2433458 155.610908,75.4976723 C155.032219,77.732517 154.749731,80.0313733 154.749731,82.3747596 C154.749731,84.7181459 155.032219,87.0142192 155.610908,89.2629795 C156.189597,91.5200891 157.072716,93.5295011 158.25752,95.3134804 C159.434097,97.0946767 160.967212,98.5307661 162.85138,99.6356644 C164.730063,100.732213 166.97077,101.277705 169.578986,101.277705 C172.176231,101.277705 174.416937,100.732213 176.268194,99.6356644 C178.130422,98.5307661 179.644339,97.0946767 180.829143,95.3134804 C182.00572,93.5295011 182.886095,91.5200891 183.464785,89.2629795 C184.046217,87.0142192 184.33419,84.7181459 184.33419,82.3747596 M194.821904,82.3747596 C194.821904,86.1820666 194.243215,89.7806396 193.094064,93.1482137 C191.936685,96.5130048 190.260955,99.4436292 188.094299,101.945653 C185.927642,104.433762 183.292001,106.395861 180.176404,107.8403 C177.060807,109.276389 173.536562,110 169.578986,110 C165.624152,110 162.083451,109.276389 158.943171,107.8403 C155.808376,106.395861 153.164506,104.433762 150.984137,101.945653 C148.817481,99.4436292 147.155463,96.5130048 145.998085,93.1482137 C144.840706,89.7806396 144.262017,86.1820666 144.262017,82.3747596 C144.262017,78.5646696 144.840706,74.9744459 145.998085,71.6068718 C147.155463,68.2420808 148.817481,65.3114563 150.984137,62.8094322 C153.164506,60.3241069 155.808376,58.3592248 158.943171,56.9231353 C162.083451,55.4842627 165.624152,54.7550855 169.578986,54.7550855 C173.536562,54.7550855 177.060807,55.4842627 180.176404,56.9231353 C183.292001,58.3592248 185.927642,60.3241069 188.094299,62.8094322 C190.260955,65.3114563 191.936685,68.2420808 193.094064,71.6068718 C194.243215,74.9744459 194.821904,78.5646696 194.821904,82.3747596" id="Fill-24" fill="#009DE0"/>
            <path d="M226.578779,108.753163 L226.578779,73.1487198 C226.578779,71.9269305 226.499243,70.7218399 226.329202,69.5167493 C226.161903,68.3227912 225.846504,67.2540735 225.355578,66.2938974 C224.870137,65.3392875 224.184486,64.5767129 223.295883,63.9894747 C222.401794,63.4022366 221.255386,63.1100091 219.851173,63.1100091 C218.411307,63.1100091 217.253928,63.4022366 216.384523,63.9894747 C215.523346,64.5767129 214.837695,65.3392875 214.365967,66.2938974 C213.877784,67.2540735 213.554157,68.3227912 213.37863,69.5167493 C213.216817,70.7218399 213.123568,71.9269305 213.123568,73.1487198 L213.123568,108.753163 L202.641339,108.753163 L202.641339,71.9074486 C202.641339,66.1436089 204.108632,61.8353406 207.054188,58.9993422 C209.988773,56.1800425 214.259006,54.7634349 219.851173,54.7634349 C225.596927,54.7634349 229.902814,56.2134399 232.768834,59.1245825 C235.634854,62.0273758 237.074721,66.285548 237.074721,71.9074486 L237.074721,108.753163 L226.578779,108.753163 Z" id="Fill-26" fill="#009DE0"/>
            <path d="M270.055071,108.753163 L270.055071,73.1487198 C270.055071,71.9269305 269.972792,70.7218399 269.800009,69.5167493 C269.629967,68.3227912 269.314568,67.2540735 268.823642,66.2938974 C268.346429,65.3392875 267.660778,64.5767129 266.763947,63.9894747 C265.875344,63.4022366 264.731678,63.1100091 263.327465,63.1100091 C261.879371,63.1100091 260.73022,63.4022366 259.860815,63.9894747 C258.994153,64.5767129 258.308502,65.3392875 257.836774,66.2938974 C257.345848,67.2540735 257.022221,68.3227912 256.854922,69.5167493 C256.684881,70.7218399 256.59986,71.9269305 256.59986,73.1487198 L256.59986,108.753163 L246.109403,108.753163 L246.109403,71.9074486 C246.109403,66.1436089 247.582181,61.8353406 250.522252,58.9993422 C253.465065,56.1800425 257.729813,54.7634349 263.327465,54.7634349 C269.064991,54.7634349 273.370878,56.2134399 276.245126,59.1245825 C279.111146,62.0273758 280.542785,66.285548 280.542785,71.9074486 L280.542785,108.753163 L270.055071,108.753163 Z" id="Fill-28" fill="#009DE0"/>
            <polygon id="Fill-30" fill="#009DE0" points="289.58597 108.753163 289.58597 56.0019229 324.101629 56.0019229 324.101629 64.9440846 300.076426 64.9440846 300.076426 78.1972978 321.786872 78.1972978 321.786872 86.5522214 300.076426 86.5522214 300.076426 99.8193503 324.680318 99.8193503 324.680318 108.753163"/>
            <g id="Group-34" transform="translate(330.243140, 56.001923)">
                <mask id="mask-4" fill="white">
                    <use xlink:href="#path-3"/>
                </mask>
                <g id="Clip-33"/>
                <path d="M43.4757434,46.5226192 C43.2947316,47.6943123 42.8559151,48.7435482 42.2114034,49.6703269 C41.5586638,50.6054549 40.6371492,51.3485477 39.4523447,51.9051715 C38.2812532,52.4784941 36.7015139,52.756806 34.7240971,52.756806 L0,52.756806 L0,44.1040887 L28.9372047,8.93381237 L1.95821857,8.93381237 L1.95821857,0 L42.5350305,0 L42.5350305,8.05434673 L13.5237756,43.8118611 L31.8306509,43.8118611 C33.8601771,43.8118611 35.1930822,43.4500557 35.8540495,42.7125291 C36.493076,41.986135 36.8139606,40.8589718 36.8139606,39.3477381 L43.7582315,42.9323955 C43.7582315,44.1514017 43.664983,45.350926 43.4757434,46.5226192" id="Fill-32" fill="#009DE0" mask="url(#mask-4)"/>
            </g>
        </g>
    </g>
</svg>